<svg viewBox="0 0 240 220" xmlns="http://www.w3.org/2000/svg" aria-label="Akright Summit">
  <defs>
    <clipPath id="aks-clip">
      <path d="M120 8 L230 210 L10 210 Z"/>
    </clipPath>
  </defs>
  <g clip-path="url(#aks-clip)">
    <!-- Solid mountain -->
    <rect width="240" height="220" fill="currentColor"/>
    <!-- A peak (inner triangle, negative space) -->
    <path d="M120 56 L156 142 L84 142 Z" fill="#FFFFFF"/>
    <!-- S monogram swooping through right side (negative space) -->
    <path d="M168 56
             C 178 76, 158 96, 138 108
             C 116 120, 122 138, 144 154
             C 162 168, 180 184, 192 202
             L 168 202
             C 156 188, 138 174, 124 162
             C 108 148, 110 130, 130 118
             C 152 106, 168 88, 158 64 Z" fill="#FFFFFF"/>
    <!-- Base wedge slice -->
    <path d="M32 196 L208 196 L196 210 L20 210 Z" fill="#FFFFFF"/>
    <!-- Sub-slice for depth -->
    <path d="M50 178 L180 178 L168 188 L40 188 Z" fill="#FFFFFF" opacity="0.0"/>
  </g>
</svg>
